<svg height="512pt" viewBox="-128 0 512 512" width="512pt" xmlns="http://www.w3.org/2000/svg"><path d="m234.667969 469.332031h-42.667969c-23.53125 0-42.667969-19.132812-42.667969-42.664062v-341.335938c0-23.53125 19.136719-42.664062 42.667969-42.664062h42.667969c11.773437 0 21.332031-9.539063 21.332031-21.335938s-9.558594-21.332031-21.332031-21.332031h-42.667969c-25.601562 0-48.339844 11.5625-64 29.484375-15.660156-17.921875-38.398438-29.484375-64-29.484375h-42.667969c-11.773437 0-21.332031 9.535156-21.332031 21.332031s9.558594 21.335938 21.332031 21.335938h42.667969c23.53125 0 42.667969 19.132812 42.667969 42.664062v341.335938c0 23.53125-19.136719 42.664062-42.667969 42.664062h-42.667969c-11.773437 0-21.332031 9.539063-21.332031 21.335938s9.558594 21.332031 21.332031 21.332031h42.667969c25.601562 0 48.339844-11.5625 64-29.484375 15.660156 17.921875 38.398438 29.484375 64 29.484375h42.667969c11.773437 0 21.332031-9.535156 21.332031-21.332031s-9.558594-21.335938-21.332031-21.335938zm0 0"/></svg>