<svg id="Layer_1" data-name="Layer 1" xmlns="http://www.w3.org/2000/svg" viewBox="0 0 348 263.6"><defs><style>.cls-1{fill:#fff;}</style></defs><title>icon_white</title><path class="cls-1" d="M422.6,388.7a11.94,11.94,0,0,1-11.8-14.1h-9.3a61.37,61.37,0,0,1-61.3-61.3V186.4a37.3,37.3,0,0,0-74.6,0V348.5a12,12,0,0,1-24,0V186.4a37.3,37.3,0,1,0-74.6,0V348.5a12,12,0,0,1-24,0V186.4c0-20.1-16.6-37.3-30.3-37.3a12,12,0,0,1,0-24c15.7,0,32.1,9.6,42.6,24.5a61.25,61.25,0,0,1,98.3.4,61.28,61.28,0,0,1,110.6,36.4V313.3a37.3,37.3,0,0,0,37.3,37.3h9.3a12.44,12.44,0,0,1,3.3-10.6,12.07,12.07,0,0,1,17,0l13.7,13.7a12,12,0,0,1,3.9,8.9,12.6,12.6,0,0,1-.8,4.3c0,.1-.1.2-.1.3s-.1.3-.2.5a4.88,4.88,0,0,0-.3.7,14.63,14.63,0,0,1-2.1,2.8l-14.2,14A12.06,12.06,0,0,1,422.6,388.7Z" transform="translate(-100.7 -125.1)"/></svg>